<?xml version="1.0" encoding="UTF-8" standalone="no"?>
<svg
   xmlns:dc="http://purl.org/dc/elements/1.1/"
   xmlns:cc="http://creativecommons.org/ns#"
   xmlns:rdf="http://www.w3.org/1999/02/22-rdf-syntax-ns#"
   xmlns:svg="http://www.w3.org/2000/svg"
   xmlns="http://www.w3.org/2000/svg"
   xmlns:sodipodi="http://sodipodi.sourceforge.net/DTD/sodipodi-0.dtd"
   xmlns:inkscape="http://www.inkscape.org/namespaces/inkscape"
   inkscape:version="1.1-dev (bc69992, 2020-04-15)"
   sodipodi:docname="UFSCar-sigla-preto.svg"
   xml:space="preserve"
   enable-background="new 0 0 200 40"
   viewBox="0 0 188.94901 37.605999"
   height="37.605999"
   width="188.94901"
   y="0px"
   x="0px"
   id="Layer_1"
   version="1.1"><metadata
   id="metadata850"><rdf:RDF><cc:Work
       rdf:about=""><dc:format>image/svg+xml</dc:format><dc:type
         rdf:resource="http://purl.org/dc/dcmitype/StillImage" /><dc:title></dc:title></cc:Work></rdf:RDF></metadata><defs
   id="defs848" /><sodipodi:namedview
   inkscape:current-layer="Layer_1"
   inkscape:window-maximized="0"
   inkscape:window-y="25"
   inkscape:window-x="0"
   inkscape:cy="20"
   inkscape:cx="100"
   inkscape:zoom="3.92"
   width="188.949px"
   showgrid="false"
   id="namedview846"
   inkscape:window-height="656"
   inkscape:window-width="1937"
   inkscape:pageshadow="2"
   inkscape:pageopacity="0"
   guidetolerance="10"
   gridtolerance="10"
   objecttolerance="10"
   borderopacity="1"
   bordercolor="#666666"
   pagecolor="#ffffff" />
<path
   id="path833"
   d="m 31.44,21.938 c 0,10.463 -4.803,15.668 -15.719,15.668 C 4.801,37.606 0,32.401 0,21.938 V 0.758 h 9.4 v 21.734 c 0,4.65 1.719,7.027 6.32,7.027 4.598,0 6.316,-2.377 6.316,-7.027 V 0.758 h 9.402 v 21.18 z"
   fill="#000000" />
<polygon
   transform="translate(-5.666,-1)"
   id="polygon835"
   points="53.081,16.669 67.94,16.669 67.94,23.949 53.081,23.949 53.081,37.848 43.679,37.848 43.679,1.758 70.267,1.758 70.267,9.29 53.081,9.29 "
   fill="#000000" />
<path
   id="path837"
   d="m 76.228,24.717 c 0.201,4.246 2.83,5.611 6.824,5.611 2.83,0 5.762,-1.012 5.762,-3.689 0,-3.186 -5.156,-3.791 -10.361,-5.258 C 73.297,19.915 67.887,17.589 67.887,10.968 67.886,3.084 75.823,0 82.595,0 89.773,0 97.001,3.488 97.052,11.626 h -9.4 c 0.15,-3.287 -2.932,-4.347 -5.814,-4.347 -2.02,0 -4.549,0.708 -4.549,3.083 0,2.78 5.207,3.286 10.465,4.751 5.205,1.466 10.463,3.892 10.463,10.413 0,9.148 -7.785,12.08 -15.721,12.08 -8.289,0 -15.619,-3.639 -15.67,-12.889 z"
   fill="#000000" />
<path
   id="path839"
   d="m 126.37,13.647 c -0.506,-3.64 -3.336,-5.56 -7.277,-5.56 -6.068,0 -8.393,5.358 -8.393,10.716 0,5.357 2.324,10.714 8.393,10.714 4.396,0 6.924,-2.525 7.277,-6.672 h 9.4 c -0.504,9.301 -7.328,14.76 -16.477,14.76 -10.918,0 -17.994,-8.34 -17.994,-18.802 C 101.3,8.339 108.376,0 119.294,0 c 7.783,0 16.225,4.953 16.477,13.647 z"
   fill="#000000" />
<path
   id="path841"
   d="m 140.021,18.702 c 0.15,-3.437 1.768,-5.661 4.092,-7.025 2.326,-1.314 5.359,-1.819 8.342,-1.819 6.217,0 12.23,1.364 12.23,8.795 v 11.473 c 0,2.225 0,4.65 1.012,6.723 h -8.645 c -0.303,-0.809 -0.402,-1.617 -0.504,-2.477 -2.223,2.324 -5.51,3.234 -8.645,3.234 -5.002,0 -8.945,-2.527 -8.945,-7.936 0,-8.541 9.299,-7.885 15.264,-9.098 1.467,-0.303 2.275,-0.809 2.275,-2.426 0,-1.973 -2.375,-2.73 -4.145,-2.73 -2.375,0 -3.893,1.062 -4.295,3.286 z m 11.119,13.597 c 4.094,0 5.457,-2.324 5.256,-7.734 -1.211,0.758 -3.438,0.91 -5.307,1.416 -1.92,0.455 -3.537,1.264 -3.537,3.336 0,2.122 1.668,2.982 3.588,2.982"
   fill="#000000" />
<path
   id="path843"
   d="m 170.601,10.614 h 8.34 v 4.6 h 0.102 c 1.264,-3.336 4.193,-5.105 7.885,-5.105 0.656,0 1.365,0.05 2.021,0.202 v 7.834 c -1.111,-0.303 -2.123,-0.505 -3.283,-0.505 -4.248,0 -6.471,2.932 -6.471,6.217 v 12.99 h -8.594 z"
   fill="#000000" />
</svg>
